<svg width="121" height="120" viewBox="0 0 121 120" fill="none" xmlns="http://www.w3.org/2000/svg">
<path d="M0 16C0 7.16344 7.16344 0 16 0H104C112.837 0 120 7.16344 120 16V104C120 112.837 112.837 120 104 120H16C7.16344 120 0 112.837 0 104V16Z" fill="url(#paint0_linear)"/>
<path d="M87.5634 0C79.9606 0 73.4077 5.3502 71.8868 12.7994L53.9201 100.799C51.8951 110.718 59.4738 120 69.5967 120L105 120C113.837 120 121 112.837 121 104V16C121 7.16344 113.837 0 105 0L87.5634 0Z" fill="url(#paint1_linear)"/>
<path d="M25.2021 22.832V28.1494H20.9922V22.832H17.2305V37H20.9922V31.665H25.2021V37H28.9551V22.832H25.2021ZM40.0103 37.3604C44.4224 37.3604 47.7974 34.1523 47.7974 29.9336C47.7974 25.6797 44.4224 22.4541 40.0191 22.4541C35.6158 22.4541 32.2408 25.6797 32.2408 29.9336C32.2408 34.1523 35.607 37.3604 40.0103 37.3604ZM40.0191 33.7656C37.7691 33.7656 36.0464 32.0869 36.0464 29.9072C36.0464 27.7188 37.7691 26.0312 40.0191 26.0312C42.2691 26.0312 43.9918 27.7188 43.9918 29.9072C43.9918 32.0869 42.2691 33.7656 40.0191 33.7656ZM53.8077 37.0879H54.8361L58.1232 30.083L61.4366 37.0879H62.4738L67.2023 22.832H63.1329L61.1818 29.3008L58.2814 22.8584H58.0001L55.0997 29.3184L53.1398 22.832H49.0704L53.8077 37.0879ZM24.3496 61.3164C26.5029 61.3164 28.3047 60.4639 29.6582 59.2334L27.5137 56.377C26.5996 57.1943 25.5361 57.7568 24.3496 57.7568C22.3281 57.7568 20.4297 56.1396 20.4297 53.9424C20.4297 51.7715 22.249 50.1104 24.4287 50.1104C25.4746 50.1104 26.626 50.6289 27.4961 51.4199L29.6582 48.6426C28.208 47.3242 26.248 46.5244 24.4199 46.498C20.0078 46.498 16.6152 49.7236 16.6152 53.916C16.6152 58.3633 20.3506 61.3164 24.3496 61.3164ZM39.8521 61.3604C44.2642 61.3604 47.6392 58.1523 47.6392 53.9336C47.6392 49.6797 44.2642 46.4541 39.8609 46.4541C35.4576 46.4541 32.0826 49.6797 32.0826 53.9336C32.0826 58.1523 35.4488 61.3604 39.8521 61.3604ZM39.8609 57.7656C37.6109 57.7656 35.8882 56.0869 35.8882 53.9072C35.8882 51.7188 37.6109 50.0312 39.8609 50.0312C42.1109 50.0312 43.8336 51.7188 43.8336 53.9072C43.8336 56.0869 42.1109 57.7656 39.8609 57.7656ZM55.548 46.832L50.9249 46.8408V61H55.548C60.3644 61 63.3087 58.3281 63.3087 53.9336C63.3087 49.5039 60.3644 46.8145 55.548 46.832ZM55.4864 57.458H54.59V50.3477H55.4513C57.9913 50.3477 59.5382 51.7012 59.5382 53.9248C59.5382 56.1221 58.0001 57.458 55.4864 57.458ZM66.6032 61H70.3649V46.832H66.6032V61ZM82.7385 46.8145V53.7227L75.4788 46.6914H74.2659V61.0088H78.0276V54.083L85.3137 61.1406H86.509V46.8145H82.7385ZM104.868 52.8613H97.5994V55.665H100.843C100.79 57.0186 99.5682 57.8447 97.8543 57.8447C95.2352 57.8447 93.6443 55.9111 93.6443 53.9248C93.6443 51.7363 95.4988 50.0049 97.6082 50.0049C98.6541 50.0049 99.7879 50.4795 100.579 51.2178L102.662 48.3613C101.493 47.2803 99.41 46.5156 97.6082 46.4893C93.2137 46.4893 89.8035 49.8906 89.8035 53.9336C89.8035 57.9766 93.2049 61.334 97.7049 61.334C101.73 61.334 104.982 58.5479 104.982 54.2412C104.982 53.793 104.938 53.3359 104.868 52.8613ZM20.9219 85.0879H21.9502L25.2373 78.083L28.5508 85.0879H29.5879L34.3164 70.832H30.2471L28.2959 77.3008L25.3955 70.8584H25.1143L22.2139 77.3184L20.2539 70.832H16.1846L20.9219 85.0879ZM44.3345 85.3604C48.7466 85.3604 52.1216 82.1523 52.1216 77.9336C52.1216 73.6797 48.7466 70.4541 44.3433 70.4541C39.94 70.4541 36.565 73.6797 36.565 77.9336C36.565 82.1523 39.9312 85.3604 44.3345 85.3604ZM44.3433 81.7656C42.0933 81.7656 40.3707 80.0869 40.3707 77.9072C40.3707 75.7188 42.0933 74.0312 44.3433 74.0312C46.5933 74.0312 48.316 75.7188 48.316 77.9072C48.316 80.0869 46.5933 81.7656 44.3433 81.7656ZM67.378 85L63.5812 79.3135C64.9698 78.6807 66.0333 77.2041 66.0333 75.4375C66.0333 72.8975 63.8448 70.832 60.7863 70.832H55.4073L55.4249 85H59.1866V78.8477L62.9747 85H67.378ZM59.1691 74.2158H60.7071C61.4982 74.2158 62.2364 74.7607 62.2364 75.6396C62.2364 76.5098 61.507 77.0723 60.7071 77.0635L59.1691 77.0547V74.2158ZM82.072 85L77.194 77.7402L81.5358 70.832H77.2116L73.9245 76.1143V70.832H70.1716V85H73.9245V79.6123L77.5104 85H82.072ZM89.2864 85.1934C92.1252 85.1934 94.6389 83.5146 94.6389 80.8164C94.6389 78.7246 93.1711 77.3711 90.9563 76.4395C89.427 75.7979 88.425 75.5869 88.425 74.9365C88.425 74.4531 88.9788 74.0576 89.7522 74.0576C90.4289 74.0576 91.5188 74.3828 91.9407 75.1299L94.1116 73.0381C93.5579 71.6406 91.8704 70.6211 89.7082 70.6211C87.0188 70.6211 84.6897 72.3701 84.6897 74.8223C84.6897 76.958 86.2278 78.1357 88.0207 78.9092C89.4094 79.5244 90.8596 80.166 90.8596 80.8955C90.8596 81.4756 90.0774 81.7656 89.2776 81.7656C88.0911 81.7656 86.9924 81.2383 86.4036 80.3682L84.1272 82.6006C84.8391 84.165 86.9573 85.1934 89.2864 85.1934Z" fill="white"/>
<path d="M16 99C16 98.4477 16.4477 98 17 98H63C63.5523 98 64 98.4477 64 99C64 99.5523 63.5523 100 63 100H17C16.4477 100 16 99.5523 16 99Z" fill="white"/>
<defs>
<linearGradient id="paint0_linear" x1="59.5041" y1="0" x2="59.5041" y2="120" gradientUnits="userSpaceOnUse">
<stop/>
<stop offset="0.0001"/>
<stop offset="1" stop-color="#363636"/>
</linearGradient>
<linearGradient id="paint1_linear" x1="121" y1="0" x2="43.8288" y2="4.10937" gradientUnits="userSpaceOnUse">
<stop stop-color="#3F44C5"/>
<stop offset="1" stop-color="#00D3E0"/>
</linearGradient>
</defs>
</svg>
